<svg width="20" height="20" viewBox="0 0 20 20" fill="none" xmlns="http://www.w3.org/2000/svg">
<path d="M4.99998 18.3334H15C15.442 18.3334 15.8659 18.1578 16.1785 17.8452C16.4911 17.5326 16.6666 17.1087 16.6666 16.6667V3.33335C16.6666 2.89133 16.4911 2.4674 16.1785 2.15484C15.8659 1.84228 15.442 1.66669 15 1.66669H4.99998C4.55795 1.66669 4.13403 1.84228 3.82147 2.15484C3.50891 2.4674 3.33331 2.89133 3.33331 3.33335V16.6667C3.33331 17.1087 3.50891 17.5326 3.82147 17.8452C4.13403 18.1578 4.55795 18.3334 4.99998 18.3334ZM7.49998 15.8334H5.83331V14.1667H7.49998V15.8334ZM7.49998 12.5H5.83331V10.8334H7.49998V12.5ZM7.49998 9.16669H5.83331V7.50002H7.49998V9.16669ZM10.8333 15.8334H9.16665V14.1667H10.8333V15.8334ZM10.8333 12.5H9.16665V10.8334H10.8333V12.5ZM10.8333 9.16669H9.16665V7.50002H10.8333V9.16669ZM14.1666 15.8334H12.5V10.8334H14.1666V15.8334ZM14.1666 9.16669H12.5V7.50002H14.1666V9.16669ZM4.99998 3.33335H15V5.83335H4.99998V3.33335Z" fill="white"/>
</svg>
